<svg width="32" height="32" viewBox="0 0 32 32" fill="none" xmlns="http://www.w3.org/2000/svg">
<path d="M32 16.0001C32 24.8366 24.8365 32.0001 16 32.0001C7.16352 32.0001 0 24.8366 0 16.0001C0 7.16362 7.16352 0.000106812 16 0.000106812C24.8365 0.000106812 32 7.16228 32 16.0001Z" fill="#4BBFFF"/>
<path d="M14.5005 19.7463L11.504 16.7498L12.5601 15.6936L14.5005 17.6272L19.4374 12.6903L20.4936 13.7532L14.5005 19.7477V19.7463ZM15.9988 7.75874L9.25586 10.7553V15.2501C9.25586 19.4077 12.1328 23.2952 15.9988 24.2398C19.8648 23.2952 22.7417 19.4077 22.7417 15.2501V10.7553L15.9988 7.75874Z" fill="#FFFDF4"/>
</svg>
