<svg width="32" height="32" viewBox="0 0 32 32" fill="none" xmlns="http://www.w3.org/2000/svg">
<path d="M32 16C32 24.8365 24.8365 32 16 32C7.16352 32 0 24.8365 0 16C0 7.16352 7.16352 0 16 0C24.8365 0 32 7.16217 32 16Z" fill="#BA89D7"/>
<path d="M16 7.32513C10.8656 7.32513 6.69727 11.4921 6.69727 16.6279C6.69727 20.0692 8.56776 23.0645 11.3399 24.6743L12.2698 23.0645C10.0553 21.7718 8.55836 19.3812 8.55836 16.6279C8.55836 12.516 11.8882 9.18623 16 9.18623C20.1119 9.18623 23.4417 12.516 23.4417 16.6279C23.4417 19.3812 21.9434 21.7718 19.7209 23.0645L20.6507 24.6743C23.4323 23.0645 25.3028 20.0692 25.3028 16.6279C25.3028 11.4934 21.1358 7.32513 16 7.32513ZM21.582 16.6279C21.582 13.5494 19.0799 11.0473 16.0014 11.0473C12.9229 11.0473 10.4208 13.5494 10.4208 16.6279C10.4208 18.6932 11.5469 20.4885 13.2104 21.456L14.1403 19.8368C13.033 19.1864 12.2792 18.0052 12.2792 16.6279C12.2792 14.572 13.9441 12.9071 16 12.9071C18.056 12.9071 19.7209 14.572 19.7209 16.6279C19.7209 18.0039 18.9684 19.1864 17.8611 19.8368L18.791 21.456C20.4559 20.4885 21.5806 18.6932 21.5806 16.6279M16 14.7668C14.9761 14.7668 14.1389 15.604 14.1389 16.6279C14.1389 17.6518 14.9761 18.489 16 18.489C17.024 18.489 17.8611 17.6518 17.8611 16.6279C17.8611 15.604 17.024 14.7668 16 14.7668Z" fill="#FFFDF4"/>
</svg>
