<svg width="32" height="32" viewBox="0 0 32 32" fill="none" xmlns="http://www.w3.org/2000/svg">
<path fill-rule="evenodd" clip-rule="evenodd" d="M16 0C7.1632 0 0 7.1632 0 16C0 24.8368 7.1632 32 16 32C24.8368 32 32 24.8368 32 16C32 7.1632 24.8368 0 16 0ZM19.6424 19.824L8.89841 23.6992C8.09121 23.9904 7.33601 23.1568 7.70641 22.3824L12.4384 12.484C12.5448 12.2608 12.7336 12.088 12.9648 12L23.1968 8.124C23.988 7.824 24.752 8.62 24.42 9.3984L20.2 19.2984C20.0952 19.544 19.8936 19.7344 19.6424 19.8248V19.824Z" fill="#75D56C"/>
<path d="M23.1973 8.12378C23.9882 7.8243 24.7517 8.62 24.4199 9.39819L20.2002 19.2986C20.0954 19.5441 19.8937 19.7345 19.6426 19.825L8.89844 23.699C8.09133 23.9901 7.33597 23.1569 7.70605 22.3826L12.4385 12.4841C12.5449 12.2609 12.7336 12.0878 12.9648 11.9998L23.1973 8.12378Z" fill="white"/>
<path fill-rule="evenodd" clip-rule="evenodd" d="M15.9993 17.7604C16.9753 17.7604 17.7593 16.9764 17.7593 16.0004C17.7593 15.0244 16.9753 14.2404 15.9993 14.2404C15.0233 14.2404 14.2393 15.0244 14.2393 16.0004C14.2393 16.9764 15.0233 17.7604 15.9993 17.7604Z" fill="#75D56C"/>
</svg>
